<svg width="36" height="33" viewBox="0 0 36 33" fill="none" xmlns="http://www.w3.org/2000/svg">
<path d="M7.82072 16.841V23.535C7.82072 25.1539 8.62542 26.6636 9.96207 27.5592L12.6845 29.3828C15.905 31.5391 20.0962 31.5391 23.315 29.3828L26.0375 27.5592C27.3758 26.6636 28.1788 25.1522 28.1788 23.535V16.841M14.1086 3.01458L3.64921 8.86583C1.45026 10.0958 1.45026 13.279 3.64921 14.5089L14.1086 20.3602C16.5278 21.713 19.4705 21.713 21.8914 20.3602L32.3508 14.5089C34.5497 13.279 34.5497 10.0958 32.3508 8.86583L21.8914 3.01458C19.4705 1.6618 16.5295 1.6618 14.1086 3.01458Z" stroke="black" stroke-width="4" stroke-linecap="round" stroke-linejoin="round"/>
</svg>
