<svg width="41" height="41" viewBox="0 0 41 41" fill="none" xmlns="http://www.w3.org/2000/svg">
<path fill-rule="evenodd" clip-rule="evenodd" d="M20.5 0C9.17816 0 0 9.17816 0 20.5C0 31.8218 9.17816 41 20.5 41C31.8218 41 41 31.8218 41 20.5C41 9.17816 31.8218 0 20.5 0ZM9.84138 16.979H14.4871V30.9375H9.84138V16.979ZM14.7931 12.6611C14.763 11.2924 13.7842 10.25 12.195 10.25C10.6057 10.25 9.56667 11.2924 9.56667 12.6611C9.56667 14.0013 10.575 15.0738 12.1347 15.0738H12.1643C13.7842 15.0738 14.7931 14.0013 14.7931 12.6611ZM25.8925 16.6512C28.9496 16.6512 31.2415 18.6467 31.2415 22.9341L31.2413 30.9375H26.5957V23.4697C26.5957 21.594 25.9235 20.314 24.2417 20.314C22.9582 20.314 22.1937 21.1769 21.8579 22.0103C21.7351 22.309 21.705 22.7251 21.705 23.1423V30.9379H17.0586C17.0586 30.9379 17.1199 18.2892 17.0586 16.9794H21.705V18.9565C22.3216 18.006 23.4259 16.6512 25.8925 16.6512Z" fill="black"/>
</svg>
