<svg width="40" height="41" viewBox="0 0 40 41" fill="none" xmlns="http://www.w3.org/2000/svg">
<path fill-rule="evenodd" clip-rule="evenodd" d="M20 0C8.9543 0 0 9.17816 0 20.5C0 31.8218 8.9543 41 20 41C31.0457 41 40 31.8218 40 20.5C40 9.17816 31.0457 0 20 0ZM15.6027 9.63272C16.7405 9.57965 17.1041 9.56667 20.001 9.56667H19.9977C22.8955 9.56667 23.2577 9.57965 24.3955 9.63272C25.5311 9.68602 26.3066 9.8703 26.9866 10.1407C27.6889 10.4197 28.2822 10.7933 28.8755 11.4014C29.4689 12.0092 29.8333 12.6191 30.1067 13.3382C30.3689 14.0334 30.5489 14.8279 30.6022 15.9919C30.6533 17.1581 30.6667 17.5308 30.6667 20.5001C30.6667 23.4695 30.6533 23.8412 30.6022 25.0074C30.5489 26.1709 30.3689 26.9657 30.1067 27.6611C29.8333 28.3799 29.4689 28.9899 28.8755 29.5977C28.2829 30.2058 27.6886 30.5803 26.9873 30.8596C26.3086 31.1299 25.5326 31.3142 24.397 31.3675C23.2593 31.4206 22.8968 31.4336 19.9997 31.4336C17.103 31.4336 16.7396 31.4206 15.6018 31.3675C14.4665 31.3142 13.6912 31.1299 13.0125 30.8596C12.3114 30.5803 11.7162 30.2058 11.1236 29.5977C10.5305 28.9899 10.166 28.3799 9.89334 27.6608C9.62978 26.9657 9.45 26.1712 9.39778 25.0072C9.34622 23.841 9.33333 23.4695 9.33333 20.5001C9.33333 17.5308 9.34667 17.1579 9.39756 15.9917C9.44867 14.8282 9.62867 14.0334 9.89312 13.338C10.1665 12.6191 10.5309 12.0092 11.1242 11.4014C11.7171 10.7935 12.3123 10.4199 13.0138 10.1407C13.692 9.8703 14.4672 9.68602 15.6027 9.63272Z" fill="black"/>
<path fill-rule="evenodd" clip-rule="evenodd" d="M19.044 11.5369C19.2298 11.5366 19.4297 11.5367 19.6454 11.5368L20.0009 11.5369C22.8489 11.5369 23.1865 11.5474 24.3111 11.5998C25.3512 11.6485 25.9156 11.8266 26.2916 11.9763C26.7894 12.1745 27.1443 12.4114 27.5174 12.794C27.8907 13.1767 28.1219 13.5412 28.3156 14.0514C28.4616 14.4363 28.6356 15.0149 28.683 16.0809C28.7341 17.2335 28.7452 17.5797 28.7452 20.4976C28.7452 23.4154 28.7341 23.7616 28.683 24.9142C28.6354 25.9802 28.4616 26.5588 28.3156 26.9437C28.1223 27.454 27.8907 27.8173 27.5174 28.1997C27.1441 28.5824 26.7896 28.8193 26.2916 29.0174C25.9161 29.1678 25.3512 29.3454 24.3111 29.3942C23.1867 29.4466 22.8489 29.458 20.0009 29.458C17.1526 29.458 16.8151 29.4466 15.6906 29.3942C14.6506 29.345 14.0862 29.1669 13.7099 29.0172C13.2121 28.819 12.8566 28.5822 12.4832 28.1995C12.1099 27.8168 11.8788 27.4533 11.685 26.9428C11.539 26.5579 11.365 25.9793 11.3177 24.9133C11.2666 23.7607 11.2563 23.4145 11.2563 20.4948C11.2563 17.5751 11.2666 17.2307 11.3177 16.0782C11.3652 15.0122 11.539 14.4336 11.685 14.0482C11.8784 13.538 12.1099 13.1735 12.4832 12.7908C12.8566 12.4082 13.2121 12.1713 13.7099 11.9727C14.0859 11.8223 14.6506 11.6447 15.6906 11.5957C16.6746 11.5501 17.056 11.5365 19.044 11.5342V11.5369ZM25.6947 13.3523C24.988 13.3523 24.4147 13.9393 24.4147 14.6639C24.4147 15.3882 24.988 15.9759 25.6947 15.9759C26.4014 15.9759 26.9747 15.3882 26.9747 14.6639C26.9747 13.9395 26.4014 13.3519 25.6947 13.3519V13.3523ZM14.523 20.5001C14.523 17.3994 16.9756 14.8854 20.0007 14.8853C23.0258 14.8853 25.4778 17.3993 25.4778 20.5001C25.4778 23.6008 23.026 26.1137 20.0009 26.1137C16.9757 26.1137 14.523 23.6008 14.523 20.5001Z" fill="black"/>
<path d="M20.0009 16.8556C21.9645 16.8556 23.5565 18.4872 23.5565 20.5001C23.5565 22.5127 21.9645 24.1446 20.0009 24.1446C18.0371 24.1446 16.4453 22.5127 16.4453 20.5001C16.4453 18.4872 18.0371 16.8556 20.0009 16.8556V16.8556Z" fill="black"/>
</svg>
