<svg width="41" height="41" viewBox="0 0 41 41" fill="none" xmlns="http://www.w3.org/2000/svg">
<path fill-rule="evenodd" clip-rule="evenodd" d="M0 20.5C0 31.8218 9.17816 41 20.5 41C31.8218 41 41 31.8218 41 20.5C41 9.17816 31.8218 0 20.5 0C9.17816 0 0 9.17816 0 20.5ZM16.7417 29.8958L17.0905 24.6703L17.0902 24.67L26.5961 16.0916C27.0133 15.7214 26.505 15.5408 25.9512 15.8767L14.2196 23.278L9.15212 21.6964C8.05778 21.3613 8.04992 20.6093 9.39782 20.0687L29.1444 12.4545C30.0463 12.045 30.9168 12.6711 30.5725 14.0515L27.2097 29.8985C26.9748 31.0246 26.2944 31.2939 25.3517 30.7737L20.229 26.989L17.7667 29.3833C17.7589 29.3909 17.7512 29.3984 17.7435 29.4059C17.4681 29.674 17.2403 29.8958 16.7417 29.8958Z" fill="black"/>
</svg>
