<?xml version="1.0" encoding="UTF-8" standalone="no"?><svg xmlns="http://www.w3.org/2000/svg" xmlns:xlink="http://www.w3.org/1999/xlink" data-name="Layer 3" fill="#2e2e2e" height="46" preserveAspectRatio="xMidYMid meet" version="1" viewBox="2.0 2.0 46.0 46.0" width="46" zoomAndPan="magnify"><g id="change1_1"><path d="M46,10H35V9.73A7.74,7.74,0,0,0,27.27,2H22.73A7.74,7.74,0,0,0,15,9.73V10H4a2,2,0,0,0-2,2V46a2,2,0,0,0,2,2H46a2,2,0,0,0,2-2V12A2,2,0,0,0,46,10ZM19,9.73A3.74,3.74,0,0,1,22.73,6h4.53A3.74,3.74,0,0,1,31,9.73V10H19V9.73ZM17,14H44V25H30V23a2,2,0,0,0-2-2H22a2,2,0,0,0-2,2v2H6V14H17Zm9,11v4H24V25h2ZM6,44V29H20v2a2,2,0,0,0,2,2h6a2,2,0,0,0,2-2V29H44V44H6Z" fill="inherit"/></g></svg>